<svg height="512" viewBox="0 0 46 60" width="512" xmlns="http://www.w3.org/2000/svg"><g id="Page-1" fill="none" fill-rule="evenodd"><g id="058---Elderly-Couple" fill="rgb(0,0,0)" fill-rule="nonzero"><path id="Shape" d="m10.263 7.2c1.142611-.26698673 2.331389-.26698673 3.474 0 .0855236.02448453.1740406.03693751.263.037.5011076-.00012516.9247499-.37112441.9909781-.86783625.0662283-.49671183-.2454092-.9657484-.7289781-1.09716375-1.4870724-.36099035-3.0389276-.36099035-4.526 0-.53295478.14525089-.84725089.69504522-.702 1.228s.69504522.84725089 1.228.702z"/><path id="Shape" d="m40.111 4.292c-.9322273-2.57208052-3.3751919-4.28512325-6.111-4.28512325s-5.1787727 1.71304273-6.111 4.28512325c-1.5411154.42391376-2.9202159 1.29908537-3.96 2.513-.1845809-.9103119-.7234366-1.70992187-1.4978877-2.22272141s-1.7209771-.69672878-2.6311123-.51127859c-2.0298049-2.10908718-4.8771536-3.23013945-7.8-3.071-2.92284644-.15913945-5.7701951.96191282-7.8 3.071-1.03003536-.2125154-2.10100277.05025776-2.91569634.71539687s-1.28643246 1.66187545-1.28430366 2.71360313v5 .012c-.00805375 1.7368464 1.27774094 3.2082242 3 3.433v.055c.00830122 2.7146009 2.17428355 4.930213 4.888 5 .042 0 .075.035.112.058v1.072c-1.61598177.3539867-2.97512941 1.4399742-3.677 2.938-2.47028928.3340565-4.31552362 2.4392371-4.323 4.932v15c0 1.6568542 1.34314575 3 3 3h2v10c0 1.1045695.8954305 2 2 2h10c1.1045695 0 2-.8954305 2-2v-23.452c-.0004618-.4559907.3076066-.8545465.749-.969l3.339-.866c-.7159278 1.3153483-1.090038 2.7894388-1.088 4.287v7c0 1.6568542 1.3431458 3 3 3h1v10c0 1.6568542 1.3431458 3 3 3h10c1.6568542 0 3-1.3431458 3-3v-10h1c1.6568542 0 3-1.3431458 3-3v-7c.0005858-2.4118196-.9700892-4.722264-2.693-6.41.4515109-.6030939.6947327-1.33662.693-2.09.0110347-1.608099-1.0894983-3.0109262-2.654-3.383.8315327-.8704762 1.3814411-1.9713384 1.578-3.159 1.756252-.1919606 3.0838999-1.679306 3.076-3.446v-.012-6.5c-.0062063-3.60132069-2.4159496-6.75538782-5.889-7.708zm-6.111-2.292c1.5074043-.00011352 2.9161164.74960022 3.758 2h-7.516c.8418836-1.25039978 2.2505957-2.00011352 3.758-2zm0 27c.6819766.003939 1.3592086-.1135607 2-.347v3.228c-1.3286129.1586688-2.6713871.1586688-4 0v-3.228c.6407914.2334393 1.3180234.350939 2 .347zm-2 16v-11.106c1.329588.1413328 2.670412.1413328 4 0v11.106zm-12.353-20c-.7117368-1.4649068-2.0558195-2.5226302-3.647-2.87v-1.067c.040631-.0361454.0918273-.0582369.146-.063 2.7017363-.0846859 4.8493932-2.2969407 4.854-5v-.055c.3465808-.0591698.6831775-.1665441 1-.319v2.874.012c-.0080119 1.7654584 1.3180939 3.2520951 3.073 3.445.1860425 1.1333553.6934647 2.1895016 1.462 3.043zm-9.647-2.422c1.2741202.5619639 2.7258798.5619639 4 0v.422c0 1.1045695-.8954305 2-2 2s-2-.8954305-2-2zm5.812 1.569c.8654392.2368839 1.5928437.8240266 2.007 1.62l-2.1 2.1c-.0935384.0912049-.2232556.1353014-.353.12-.1052146-.0101367-.199421-.0694793-.254-.16-.2989271-.5083769-.6512555-.9834001-1.051-1.417.8434354-.5118416 1.4672686-1.3180865 1.751-2.263zm5.751-17.709c.2797566.28269198.4367768.66428342.437 1.062v1.839c-.4686189-.22299681-.9810287-.33880142-1.5-.339h-1.5v-1.5c-.0014954-.60796732.3641377-1.15670877.9257993-1.38943782.5616615-.23272906 1.2082539-.1034115 1.6372007.32743782zm-10.563 4.562c0 1.1045695-.8954305 2-2 2s-2-.8954305-2-2zm6 0c0 1.1045695-.8954305 2-2 2s-2-.8954305-2-2zm.984-5.923c-.6300052.64936966-.9828615 1.51824247-.984 2.423v1.5h-10v-1.5c-.00113851-.90475753-.35399482-1.77363034-.984-2.423 1.64451537-1.45129635 3.79397579-2.1973574 5.984-2.077 2.1900242-.1203574 4.3394846.62570365 5.984 2.077zm-15.546 1.36c.42917094-.43026094 1.07554041-.55905821 1.63685344-.32616369s.92663986.78145492.92514656 1.38916369v1.5h-1.5c-.51897132.00019858-1.03138108.11600319-1.5.339v-1.839c.00022595-.39820542.15763346-.7802241.438-1.063zm2.562 9.563v-.645c-.00110146-.7478891-.60711088-1.3538985-1.355-1.355-.72769293.0323352-1.38538156-.4309242-1.6-1.127-.11536708-.4493679-.01630508-.9268305.2683103-1.2932117.28461539-.3663812.72274935-.580443 1.1866897-.5797883h1.5c-.00739616 1.6680192 1.02536392 3.1639686 2.5877074 3.748285 1.56234348.5843165 3.3232998.1332171 4.4122926-1.130285 1.0889928 1.2635021 2.8499491 1.7146015 4.4122926 1.130285 1.5623435-.5843164 2.5951036-2.0802658 2.5877074-3.748285h1.5c.4641158-.0009645.9025384.2129669 1.1873838.5793923.2848453.3664254.3840276.8440694.2686162 1.2936077-.2147117.6964496-.8729428 1.1598016-1.601 1.127-.7478891.0011015-1.3538985.6071109-1.355 1.355v.645c.0005088 1.6280014-1.2975073 2.9593-2.925 3-.6765895.0124811-1.3113087.3300245-1.727.864-.5673423.7199355-1.4333842 1.1400918-2.35 1.1400918s-1.7826577-.4201563-2.35-1.1400918c-.42160033-.5380473-1.06449816-.8558183-1.748-.864-1.61767546-.0539522-2.90089945-1.3814253-2.9-3zm3.188 8.146c.28374483.9462598.90835574 1.7536576 1.753 2.266-.39974446.4335999-.7520729.9086231-1.051 1.417-.05457901.0905207-.14878542.1498633-.254.16-.12965162.0144354-.25900745-.0295383-.353-.12l-2.1-2.1c.41373386-.7961345 1.14015401-1.3841544 2.005-1.623zm-1.188 20.854h4v13h-4zm6 13v-13h4v13zm6.247-26.356c-1.3230986.3430808-2.2470177 1.5371444-2.247 2.904v8.452h-10v-10c0-.5522847-.44771525-1-1-1s-1 .4477153-1 1v13h-2c-.55228475 0-1-.4477153-1-1v-15c.00455598-1.5070164 1.12852789-2.7757682 2.624-2.962l2.245 2.245c.52914944.5313462 1.27533115.7863563 2.019.69.71914797-.0865233 1.356725-.5036851 1.724-1.128.3612931-.6243969.8313626-1.179133 1.388-1.638.5564256.4590817 1.0264604 1.0137769 1.388 1.638.367275.6243149 1.004852 1.0414767 1.724 1.128.1034843.0131332.2076858.0198128.312.02.6409821.0007785 1.2556419-.2548797 1.707-.71l2.283-2.283h10.277c.022.024.05.047.068.069.069.086.15.18.241.277v.713c-1.7499436.1943906-3.4038147.9001119-4.755 2.029zm4.753 12.356v-7c.0066473-3.4756199 2.5603905-6.420937 6-6.92v14.92h-5c-.5522847 0-1-.4477153-1-1zm16 13c0 .5522847-.4477153 1-1 1h-10c-.5522847 0-1-.4477153-1-1v-10h3v6c0 .5522847.4477153 1 1 1s1-.4477153 1-1v-6h2v6c0 .5522847.4477153 1 1 1s1-.4477153 1-1v-6h3zm4-20v7c0 .5522847-.4477153 1-1 1h-5v-14.92c3.4396095.499063 5.9933527 3.4443801 6 6.92zm-2-8.5c-.0027429.3060041-.1002099.6036452-.279.852-1.1286806-.7024864-2.3999124-1.1442232-3.721-1.293v-.713c.091-.1.172-.191.241-.277.018-.022.046-.045.068-.069h2.191c.398314-.0016029.7807768.1559176 1.0624296.4375704s.4391733.6641156.4375704 1.0624296zm1.956-9.627c-.21499.6975729-.8748506 1.1612031-1.604 1.127-.7198539.0056412-1.3138802.5648018-1.363 1.283-.1186042 1.6758835-1.2733033 3.0983737-2.889 3.559-.5632178.1688289-1.0594333.5097803-1.419.975-.1115056.1376327-.2346246.2654355-.368.382-.01.01-.02.018-.03.029-1.347999 1.0292319-3.218001 1.0292319-4.566 0-.01-.011-.02-.019-.03-.029-.1333754-.1165645-.2564944-.2443673-.368-.382-.3593329-.4654668-.8556353-.806478-1.419-.975-1.6156967-.4606263-2.7703958-1.8831165-2.889-3.559-.0496801-.7191181-.6451823-1.2784368-1.366-1.283-.7276929.0323352-1.3853816-.4309242-1.6-1.127-.1153671-.4493679-.0163051-.9268305.2683103-1.2932117s.7227493-.580443 1.1866897-.5797883h1.642c.3615312 1.4376232 1.4942579 2.5538449 2.9370324 2.894237 1.4427746.3403921 2.954976-.1518148 3.9209676-1.276237.9659916 1.1244222 2.478193 1.6166291 3.9209676 1.276237 1.4427745-.3403921 2.5755012-1.4566138 2.9370324-2.894237h1.642c.4641158-.0009645.9025384.2129669 1.1873838.5793923.2848453.3664254.3840276.8440694.2686162 1.2936077zm-4.956-2.873c0 1.1045695-.8954305 2-2 2s-2-.8954305-2-2zm0-2h-10v-1.161c.0565762-1.0665766.9630371-1.8877498 2.03-1.839.5392755-.0031136 1.0598998.1972089 1.458.561l.032.028c.8402711.7591206 2.1187289.7591206 2.959 0l.033-.029c.398252-.3634277.9188592-.5633865 1.458-.56 1.0669629-.0487498 1.9734238.7724234 2.03 1.839zm-6 2c0 1.1045695-.8954305 2-2 2s-2-.8954305-2-2zm11-.661c-.4686189-.2229968-.9810287-.3388014-1.5-.339h-1.5v-2.161c-.0561984-2.1714322-1.8583983-3.88821773-4.03-3.839-1.0359472-.00597824-2.0359588.37938336-2.8 1.079l-.028.025c-.0820686.066979-.1999314.066979-.282 0l-.026-.023c-.7645917-.70154287-1.76635-1.08774143-2.804-1.081-2.1716017-.04921773-3.9738016 1.6675678-4.03 3.839v2.161h-1.5c-.5189713.0001986-1.0313811.1160032-1.5.339v-3.339c.0033074-3.31233757 2.6876624-5.99669262 6-6h8c3.3123376.00330738 5.9966926 2.68766243 6 6z"/></g></g></svg>