<?xml version="1.0" encoding="iso-8859-1"?>
<!-- Generator: Adobe Illustrator 17.1.0, SVG Export Plug-In . SVG Version: 6.00 Build 0)  -->
<!DOCTYPE svg PUBLIC "-//W3C//DTD SVG 1.1//EN" "http://www.w3.org/Graphics/SVG/1.1/DTD/svg11.dtd">
<svg version="1.1" id="Capa_1" xmlns="http://www.w3.org/2000/svg" xmlns:xlink="http://www.w3.org/1999/xlink" x="0px" y="0px"
	 viewBox="0 0 465.001 465.001" style="enable-background:new 0 0 465.001 465.001;" xml:space="preserve">
<g>
	<path d="M460.013,113.651l-36.633-13.025c-3.902-1.391-8.191,0.65-9.579,4.554s0.651,8.191,4.554,9.579l31.646,11.252v320.862
		l-97.5-34.666V262.955c0-4.143-3.358-7.5-7.5-7.5s-7.5,3.357-7.5,7.5v149.252l-97.5,34.666V262.96c0-4.143-3.358-7.5-7.5-7.5
		s-7.5,3.357-7.5,7.5v183.913l-97.5-34.666V150.718c0-4.143-3.358-7.5-7.5-7.5s-7.5,3.357-7.5,7.5v261.489l-97.5,34.666V126.011
		l97.5-34.667v29.374c0,4.143,3.358,7.5,7.5,7.5s7.5-3.357,7.5-7.5V91.344l27.975,9.946c3.903,1.391,8.192-0.65,9.579-4.554
		c1.388-3.903-0.651-8.191-4.554-9.579l-37.987-13.506c-0.022-0.008-0.045-0.01-0.066-0.018c-0.359-0.124-0.73-0.222-1.111-0.291
		c-0.057-0.01-0.114-0.017-0.17-0.026c-0.38-0.06-0.767-0.1-1.165-0.1h0H120c-0.397,0-0.783,0.04-1.163,0.099
		c-0.058,0.009-0.115,0.016-0.172,0.026c-0.381,0.069-0.751,0.167-1.11,0.291c-0.022,0.008-0.045,0.01-0.066,0.018l-112.5,40
		c-2.99,1.063-4.987,3.893-4.987,7.066V457.5c0,2.438,1.184,4.723,3.175,6.128c1.992,1.404,4.542,1.758,6.837,0.938l109.987-39.106
		l109.987,39.106c0.022,0.008,0.045,0.01,0.067,0.018c0.359,0.124,0.729,0.222,1.11,0.29c0.057,0.011,0.115,0.018,0.172,0.026
		c0.38,0.06,0.767,0.1,1.164,0.1s0.784-0.04,1.164-0.1c0.057-0.009,0.115-0.016,0.172-0.026c0.381-0.068,0.751-0.166,1.11-0.29
		c0.022-0.008,0.045-0.01,0.067-0.018l109.987-39.106l109.987,39.106c0.818,0.291,1.667,0.434,2.512,0.434
		c1.529,0,3.043-0.468,4.325-1.372c1.991-1.405,3.175-3.69,3.175-6.128V120.718C465.001,117.544,463.003,114.714,460.013,113.651z"
		/>
	<path d="M274.235,271.625c3.933,3.228,9.088,5.005,14.515,5.005c5.427,0,10.583-1.777,14.516-5.004
		c0.963-0.791,23.853-19.688,47.05-48.991c31.549-39.855,47.545-78.051,47.545-113.524C397.861,48.946,348.914,0,288.751,0
		S179.64,48.946,179.64,109.11c0,35.474,15.997,73.669,47.545,113.524C250.382,251.938,273.272,270.835,274.235,271.625z
		 M288.751,15c51.893,0,94.11,42.218,94.11,94.11c0,76.814-88.22,150.188-89.109,150.919c-1.24,1.017-3.063,1.601-5.002,1.601
		c-1.938,0-3.761-0.584-5.001-1.602c-0.891-0.73-89.108-73.993-89.108-150.918C194.64,57.218,236.858,15,288.751,15z"/>
	<path d="M347.371,109.11c0-32.324-26.297-58.621-58.621-58.621s-58.621,26.297-58.621,58.621s26.297,58.621,58.621,58.621
		S347.371,141.435,347.371,109.11z M245.129,109.11c0-24.053,19.568-43.621,43.621-43.621c24.052,0,43.621,19.568,43.621,43.621
		s-19.568,43.621-43.621,43.621C264.698,152.731,245.129,133.163,245.129,109.11z"/>
</g>
<g>
</g>
<g>
</g>
<g>
</g>
<g>
</g>
<g>
</g>
<g>
</g>
<g>
</g>
<g>
</g>
<g>
</g>
<g>
</g>
<g>
</g>
<g>
</g>
<g>
</g>
<g>
</g>
<g>
</g>
</svg>
